<?xml version="1.0" encoding="UTF-8" standalone="no"?>
<!DOCTYPE svg PUBLIC "-//W3C//DTD SVG 1.1//EN" "http://www.w3.org/Graphics/SVG/1.1/DTD/svg11.dtd">
<svg width="100%" height="100%" viewBox="0 0 1475 770" version="1.1" xmlns="http://www.w3.org/2000/svg" xmlns:xlink="http://www.w3.org/1999/xlink" xml:space="preserve" xmlns:serif="http://www.serif.com/" style="fill-rule:evenodd;clip-rule:evenodd;stroke-linecap:round;stroke-linejoin:round;stroke-miterlimit:1.5;">
    <g transform="matrix(1,0,0,1,0,-1825)">
        <g transform="matrix(1.02402,0,0,0.533715,2.23821e-13,1825.99)">
            <rect id="Artboard1" x="0" y="0" width="1440" height="1440" style="fill:none;"/>
            <g id="Artboard11" serif:id="Artboard1">
                <g transform="matrix(1.31777,0,0,2.52836,-263.248,-1169.6)">
                    <g transform="matrix(1,0,0,1,-567.773,293.083)">
                        <path d="M1071.2,664.475L1071.2,461.119L983.172,461.119L983.172,664.475L782.391,664.475L782.391,189.359L1271.99,189.359L1271.99,664.475L1071.2,664.475ZM1071.2,280.739L983.172,280.739L983.172,368.772L1071.2,368.772L1071.2,280.739Z" style="fill:rgb(255,153,0);stroke:white;stroke-width:14.82px;"/>
                    </g>
                    <g transform="matrix(1.04797,-1.28339e-16,-1.22465e-16,-1,-10.2951,1915.12)">
                        <path d="M406.209,957.558L214.618,957.558L270.388,899.113L461.978,899.113L406.209,957.558Z" style="fill:rgb(77,77,78);stroke:white;stroke-width:14.47px;"/>
                    </g>
                    <g transform="matrix(1.04797,-1.28339e-16,-1.22465e-16,-1,278.519,1915.12)">
                        <path d="M406.209,957.558L214.618,957.558L270.388,899.113L461.978,899.113L406.209,957.558Z" style="fill:rgb(77,77,78);stroke:white;stroke-width:14.47px;"/>
                    </g>
                    <g transform="matrix(1.04797,-1.28339e-16,-1.22465e-16,-1,190.486,1711.76)">
                        <path d="M298.622,957.558L214.618,957.558L270.388,899.113L298.622,899.113L298.622,957.558Z" style="fill:rgb(77,77,78);stroke:white;stroke-width:14.47px;"/>
                    </g>
                    <g transform="matrix(-6.41696e-17,-1.04797,1,-6.12323e-17,-483.714,1238.34)">
                        <path d="M406.209,957.558L212.161,957.558L267.93,899.113L461.978,899.113L406.209,957.558Z" style="fill:rgb(77,77,78);stroke:white;stroke-width:14.47px;"/>
                    </g>
                    <g transform="matrix(-6.41696e-17,-1.04797,1,-6.12323e-17,-194.9,1238.34)">
                        <path d="M665.529,957.558L212.161,957.558L267.93,899.113L721.299,899.113L665.529,957.558Z" style="fill:rgb(77,77,78);stroke:white;stroke-width:14.47px;"/>
                    </g>
                    <g transform="matrix(6.41696e-17,1.04797,-1,6.12323e-17,1372.96,373.619)">
                        <path d="M275.042,957.558L191.039,957.558L246.808,899.113L275.042,899.113L275.042,957.558Z" style="fill:rgb(77,77,78);stroke:white;stroke-width:14.47px;"/>
                    </g>
                    <g transform="matrix(-1.04797,2.32696e-16,2.22045e-16,1,899.538,-325.292)">
                        <path d="M406.209,957.558L377.974,957.558L377.974,899.113L461.978,899.113L406.209,957.558Z" style="fill:rgb(77,77,78);stroke:white;stroke-width:14.47px;"/>
                    </g>
                </g>
                <g transform="matrix(1.31777,0,0,2.52836,-263.248,-1169.6)">
                    <g transform="matrix(1,0,0,1,92.6967,-4.19755)">
                        <g transform="matrix(1,0,0,1,473.235,361.433)">
                            <rect x="167.482" y="176.987" width="489.594" height="104.749" style="fill:rgb(255,153,0);stroke:white;stroke-width:14.82px;"/>
                        </g>
                        <g transform="matrix(1.04797,-1.28339e-16,-1.22465e-16,-1,415.803,1600.73)">
                            <path d="M681.802,957.558L214.618,957.558L270.388,899.113L737.572,899.113L681.802,957.558Z" style="fill:rgb(77,77,78);stroke:white;stroke-width:14.47px;"/>
                        </g>
                        <g transform="matrix(6.41696e-17,-1.04797,1,6.12323e-17,231.198,926.527)">
                            <path d="M314.572,957.558L214.618,957.558L270.388,899.113L370.342,899.113L314.572,957.558Z" style="fill:rgb(77,77,78);stroke:white;stroke-width:14.47px;"/>
                        </g>
                    </g>
                    <g transform="matrix(1,0,0,1,92.6967,-4.19755)">
                        <g transform="matrix(1,0,0,1,473.235,497.302)">
                            <rect x="167.482" y="176.987" width="489.594" height="104.749" style="fill:rgb(255,153,0);stroke:white;stroke-width:14.82px;"/>
                        </g>
                        <g transform="matrix(1.04797,-1.28339e-16,-1.22465e-16,-1,415.803,1736.6)">
                            <path d="M681.802,957.558L214.618,957.558L270.388,899.113L737.572,899.113L681.802,957.558Z" style="fill:rgb(77,77,78);stroke:white;stroke-width:14.47px;"/>
                        </g>
                        <g transform="matrix(6.41696e-17,-1.04797,1,6.12323e-17,231.198,1062.4)">
                            <path d="M314.572,957.558L214.618,957.558L270.388,899.113L370.342,899.113L314.572,957.558Z" style="fill:rgb(77,77,78);stroke:white;stroke-width:14.47px;"/>
                        </g>
                    </g>
                    <g transform="matrix(1,0,0,1,92.6967,-4.19755)">
                        <g transform="matrix(1,0,0,1,473.235,628.239)">
                            <rect x="167.482" y="176.987" width="489.594" height="104.749" style="fill:rgb(255,153,0);stroke:white;stroke-width:14.82px;"/>
                        </g>
                        <g transform="matrix(1.04797,-1.28339e-16,-1.22465e-16,-1,415.803,1867.53)">
                            <path d="M681.802,957.558L214.618,957.558L270.388,899.113L737.572,899.113L681.802,957.558Z" style="fill:rgb(77,77,78);stroke:white;stroke-width:14.47px;"/>
                        </g>
                        <g transform="matrix(6.41696e-17,-1.04797,1,6.12323e-17,231.198,1193.33)">
                            <path d="M314.572,957.558L214.618,957.558L270.388,899.113L370.342,899.113L314.572,957.558Z" style="fill:rgb(77,77,78);stroke:white;stroke-width:14.47px;"/>
                        </g>
                    </g>
                    <g>
                        <g transform="matrix(1.04797,-1.28339e-16,-1.22465e-16,-1,709.281,1535.8)">
                            <path d="M298.622,957.558L214.618,957.558L242.503,928.336L326.507,928.336L298.622,957.558Z" style="fill:rgb(77,77,78);stroke:white;stroke-width:14.47px;"/>
                        </g>
                        <g transform="matrix(6.41696e-17,-1.04797,1,6.12323e-17,123.114,878.313)">
                            <path d="M328.34,928.336L258.453,928.336L286.338,899.113L370.342,899.113L328.34,943.13L328.34,928.336Z" style="fill:rgb(77,77,78);stroke:white;stroke-width:14.47px;"/>
                        </g>
                        <g transform="matrix(1,0,0,1,565.932,117.091)">
                            <rect x="368.262" y="373.116" width="88.033" height="88.033" style="fill:rgb(255,153,0);stroke:white;stroke-width:14.82px;"/>
                        </g>
                    </g>
                    <g transform="matrix(1.04797,-1.28339e-16,-1.22465e-16,-1,709.281,1907.2)">
                        <path d="M298.622,957.558L214.618,957.558L270.388,899.113L354.391,899.113L298.622,957.558Z" style="fill:rgb(77,77,78);stroke:white;stroke-width:14.47px;"/>
                    </g>
                    <g transform="matrix(6.41696e-17,-1.04797,1,6.12323e-17,123.114,1233)">
                        <path d="M284.505,957.558L214.618,957.558L270.388,899.113L354.391,899.113L326.507,928.336L312.39,928.336L284.505,957.558Z" style="fill:rgb(77,77,78);stroke:white;stroke-width:14.47px;"/>
                    </g>
                    <g transform="matrix(1,0,0,1,565.932,488.495)">
                        <rect x="368.262" y="373.116" width="88.033" height="88.033" style="fill:rgb(255,153,0);stroke:white;stroke-width:14.82px;"/>
                    </g>
                </g>
            </g>
        </g>
    </g>
</svg>
